<svg version="1.2" xmlns="http://www.w3.org/2000/svg" viewBox="0 0 800 800" width="800" height="800">
	<style>
		.s0 { fill: #717171 } 
	</style>
	<path class="s0" d="m796.03 298.27c-25.76-136.17-161.96-153.1-161.96-153.1h-609.97c-20.13 0-22.63 26.6-22.63 26.6 0 0-2.74 244.13-0.74 394.06 5.47 80.8 86.2 89.07 86.2 89.07 0 0 275.57-0.77 398.87-1.63 81.27-14.2 89.43-85.54 88.6-124.47 145.07 8 247.4-94.37 221.63-230.53zm-368.73 117.03c-41.53 48.43-133.7 132.53-133.7 132.53 0 0-4.03 3.97-10.33 0.77-2.54-1.9-3.6-3-3.6-3-14.77-14.7-112.27-101.63-134.47-131.8-23.63-32.17-34.7-90-3.03-123.67 31.7-33.66 100.16-36.2 145.43 13.57 0 0 52.17-59.4 115.6-32.1 63.47 27.33 61.07 100.37 24.1 143.7zm205.77 15.93c-30.94 3.87-56.07 0.94-56.07 0.94v-189.37h59c0 0 65.7 18.37 65.7 87.93 0 63.77-32.83 88.9-68.63 100.5z"/>
</svg>